<svg width="18" height="22" viewBox="0 0 18 22" fill="none" xmlns="http://www.w3.org/2000/svg">
<path fill-rule="evenodd" clip-rule="evenodd" d="M15.6534 17.4831C15.448 17.7124 15.0623 17.6535 14.792 17.3515L0.243038 1.1019C-0.0273744 0.799879 -0.080147 0.36913 0.125189 0.139812C0.330506 -0.089505 0.716174 -0.0305848 0.986587 0.271458L15.5355 16.521C15.8059 16.823 15.8587 17.2538 15.6534 17.4831Z" fill="#F36B61"/>
<path fill-rule="evenodd" clip-rule="evenodd" d="M1.09917 2.96265C0.780065 2.96265 0.555301 3.14749 0.425807 3.51612C0.296499 3.90378 0.349961 4.23455 0.585824 4.50886L6.21065 11.5029V17.4597C6.21065 17.7055 6.28298 17.9193 6.42709 18.0986L9.34865 21.7295C9.4848 21.9099 9.6561 22 9.86163 22C9.95264 22 10.0481 21.9759 10.1471 21.9285C10.4438 21.7678 10.5922 21.489 10.5922 21.0917V13.6131L1.09917 2.96265Z" fill="#F36B61"/>
<path fill-rule="evenodd" clip-rule="evenodd" d="M16.3265 2.94354H4.24556C3.93885 2.94354 10.9938 10.5093 10.9938 10.5093L16.8212 4.35192C17.0479 4.10191 17.098 3.80067 16.9739 3.44761C16.85 3.11169 16.6347 2.94354 16.3265 2.94354Z" fill="#F36B61"/>
</svg>
