<svg width="45" height="36" viewBox="0 0 45 36" fill="none" xmlns="http://www.w3.org/2000/svg">
<path d="M14.3711 26.2363C15.1981 26.2363 15.8728 25.5505 15.8655 24.7006V3.78253C15.8655 3.62598 15.9889 3.49925 16.1412 3.49925H26.4788C27.3058 3.49925 27.9732 2.81341 27.9732 1.96357C27.9732 1.11372 27.3058 0.427887 26.4788 0.427887H16.1412C14.3421 0.427887 12.8767 1.93375 12.8767 3.78253V24.7006C12.8767 25.5505 13.5441 26.2363 14.3711 26.2363Z" fill="#65B868"/>
<path d="M16.4969 30.6346L13.8491 32.3939C13.7765 32.4312 13.704 32.4237 13.6604 32.4088C13.6097 32.3939 13.5371 32.3641 13.4936 32.2821L3.31561 14.167C3.26483 14.085 3.27208 14.003 3.28659 13.9508C3.3011 13.8986 3.33012 13.8241 3.40992 13.7794L9.68501 9.93271C10.3959 9.49288 10.6281 8.55358 10.2073 7.82301C9.77932 7.09244 8.86526 6.85389 8.15433 7.28627L1.90099 11.118C1.15379 11.5653 0.616958 12.2884 0.39207 13.1532C0.167182 14.0254 0.283253 14.9274 0.71852 15.7027L10.8893 33.8103C11.3245 34.5856 12.0355 35.1447 12.877 35.3758C13.1599 35.4578 13.4501 35.4951 13.733 35.4951C14.2988 35.4951 14.8574 35.346 15.3652 35.0478L15.4015 35.0254L18.1219 33.2139C18.8184 32.7517 19.0142 31.805 18.5645 31.0893C18.1147 30.3737 17.1934 30.1724 16.4969 30.6346Z" fill="#5173CB"/>
<path d="M44.0058 12.3481C43.7736 11.4758 43.2368 10.7527 42.4823 10.3054L33.3998 4.91565C32.9065 4.62492 32.3479 4.46837 31.7748 4.46837C30.6068 4.46837 29.5186 5.10948 28.9383 6.14569L18.7603 24.2608C18.325 25.0361 18.2089 25.9455 18.4338 26.8103C18.666 27.6825 19.2028 28.4056 19.9573 28.8529L29.0471 34.2427C29.5404 34.5334 30.099 34.69 30.6721 34.69C31.84 34.69 32.921 34.0414 33.5013 33.0127L43.6793 14.8976C44.1146 14.1223 44.2307 13.2128 44.0058 12.3481ZM41.0822 13.3619L30.9042 31.477C30.8534 31.5813 30.7446 31.6186 30.6648 31.6186C30.6213 31.6186 30.5778 31.6037 30.5342 31.5813L21.4517 26.1915C21.3719 26.1468 21.3429 26.0723 21.3283 26.0201C21.3211 25.9679 21.3138 25.8859 21.3574 25.8039L31.5354 7.68883C31.5861 7.58446 31.695 7.54718 31.7748 7.54718C31.8183 7.54718 31.8618 7.55464 31.8981 7.58446L40.9807 12.9743C41.0605 13.019 41.0895 13.0935 41.104 13.1457C41.1185 13.1979 41.1257 13.2799 41.0822 13.3619Z" fill="#F36B61"/>
</svg>
